<svg width="32" height="32" viewBox="0 0 32 32" fill="none" xmlns="http://www.w3.org/2000/svg">
<path d="M15.8448 1.01808C14.7898 1.04058 14.4848 2.19058 14.1073 3.13058C13.7298 4.07058 11.4823 9.18308 10.0273 11.7631C8.57231 14.3431 6.60231 17.7231 6.88231 22.5556C7.16481 27.3881 10.9173 30.9956 16.1748 30.9556C20.9273 30.9206 25.0848 28.1806 25.2548 22.2281C25.3948 17.3006 22.6848 13.0431 21.3473 10.4381C20.5523 8.88808 17.9498 3.70058 17.6748 3.05808C17.1823 1.90808 16.9723 0.993078 15.8448 1.01808Z" fill="#0C1F63"/>
<path d="M11.8447 16.105C11.1047 16.1375 9.34473 18.4275 9.34473 21.315C9.34473 24.2025 10.7072 26.335 12.1947 26.03C13.9197 25.6775 13.6372 23.9175 13.2847 22.51C12.9822 21.3 12.5097 19.87 12.4047 18.5675C12.3397 17.725 12.6197 16.07 11.8447 16.105Z" fill="#E1E8ED"/>
</svg>
